<svg width="32" height="32" viewBox="0 0 61 61" fill="none" xmlns="http://www.w3.org/2000/svg">
<path d="M24.3111 42.2084C22.6744 41.0656 23.538 38.4935 25.5328 38.5701L35.8471 38.9659C37.8142 39.0414 38.5003 41.6145 36.832 42.6594L31.6938 45.8776C31.0138 46.3035 30.1451 46.2818 29.4872 45.8225L24.3111 42.2084Z" fill="black"/>
<path fill-rule="evenodd" clip-rule="evenodd" d="M48.6808 32.4457C51.2124 31.0457 52.5576 28.5182 51.7228 26.6209C50.8323 24.597 47.786 24.0318 44.9231 25.3593C42.0601 26.6867 40.4593 29.4066 41.3498 31.4305C42.2402 33.4543 45.2865 34.0195 48.1494 32.6921C48.3284 32.6091 48.5121 32.539 48.6808 32.4457Z" fill="black"/>
<path fill-rule="evenodd" clip-rule="evenodd" d="M51.3817 27.5868L51.3267 1.84956Z" fill="black"/>
<path fill-rule="evenodd" clip-rule="evenodd" d="M14.6403 32.7893C17.1719 31.3893 18.5171 28.8619 17.6822 26.9645C16.7918 24.9407 13.7455 24.3755 10.8825 25.7029C8.01958 27.0304 6.41875 29.7503 7.30922 31.7741C8.1997 33.798 11.2459 34.3632 14.1089 33.0357C14.2878 32.9528 14.4715 32.8827 14.6403 32.7893Z" fill="black"/>
<path fill-rule="evenodd" clip-rule="evenodd" d="M17.3412 27.9304L17.2862 2.19323Z" fill="black"/>
<path d="M16.7103 4.40564L51.9483 4.33037L51.9412 1L16.7032 1.07527L16.7103 4.40564Z" fill="black"/>
<path d="M51.3817 27.5868L51.3267 1.84956M17.3412 27.9304L17.2862 2.19323M18.4092 46.6783L4.40924 51.6783M18.8316 48.9507L4.26357 60.2543M18.4452 44.4997L0.0177116 45.1531M41.1228 45.6755L55.8406 50.6755M40.684 47.9431L55.9989 59.2467M41.084 43.4997L60.4562 44.153M31.6938 45.8776L36.832 42.6594C38.5003 41.6145 37.8142 39.0414 35.8471 38.9659L25.5328 38.5701C23.538 38.4935 22.6744 41.0656 24.3111 42.2084L29.4872 45.8225C30.1451 46.2818 31.0138 46.3035 31.6938 45.8776ZM48.6808 32.4457C51.2124 31.0457 52.5576 28.5182 51.7228 26.6209C50.8323 24.597 47.786 24.0318 44.9231 25.3593C42.0601 26.6867 40.4593 29.4066 41.3498 31.4305C42.2402 33.4543 45.2865 34.0195 48.1494 32.6921C48.3284 32.6091 48.5121 32.539 48.6808 32.4457ZM14.6403 32.7893C17.1719 31.3893 18.5171 28.8619 17.6822 26.9645C16.7918 24.9407 13.7455 24.3755 10.8825 25.7029C8.01958 27.0304 6.41875 29.7503 7.30922 31.7741C8.1997 33.798 11.2459 34.3632 14.1089 33.0357C14.2878 32.9528 14.4715 32.8827 14.6403 32.7893ZM51.9483 4.33037L16.7103 4.40564L16.7032 1.07527L51.9412 1L51.9483 4.33037Z" stroke="black"/>
</svg>
